<svg width="60" height="60" viewBox="0 0 60 60" fill="none" xmlns="http://www.w3.org/2000/svg">
<path fill-rule="evenodd" clip-rule="evenodd" d="M22.5 3.75H45V30C45.0001 30.3317 44.9121 30.6576 44.7451 30.9442C44.5781 31.2309 44.3381 31.4681 44.0495 31.6317C43.7608 31.7952 43.434 31.8793 43.1023 31.8753C42.7705 31.8712 42.4458 31.7793 42.1613 31.6087L33.75 26.5613L25.3388 31.6125C25.0539 31.7832 24.7289 31.8752 24.3968 31.879C24.0648 31.8829 23.7377 31.7985 23.4489 31.6345C23.1602 31.4705 22.9202 31.2327 22.7535 30.9455C22.5867 30.6584 22.4993 30.3321 22.5 30V3.75Z" fill="black"/>
<path d="M11.25 0H48.75C50.7391 0 52.6468 0.790176 54.0533 2.1967C55.4598 3.60322 56.25 5.51088 56.25 7.5V52.5C56.25 54.4891 55.4598 56.3968 54.0533 57.8033C52.6468 59.2098 50.7391 60 48.75 60H11.25C9.26088 60 7.35322 59.2098 5.9467 57.8033C4.54018 56.3968 3.75 54.4891 3.75 52.5V48.75H7.5V52.5C7.5 53.4946 7.89509 54.4484 8.59835 55.1516C9.30161 55.8549 10.2554 56.25 11.25 56.25H48.75C49.7446 56.25 50.6984 55.8549 51.4016 55.1516C52.1049 54.4484 52.5 53.4946 52.5 52.5V7.5C52.5 6.50544 52.1049 5.55161 51.4016 4.84835C50.6984 4.14509 49.7446 3.75 48.75 3.75H11.25C10.2554 3.75 9.30161 4.14509 8.59835 4.84835C7.89509 5.55161 7.5 6.50544 7.5 7.5V11.25H3.75V7.5C3.75 5.51088 4.54018 3.60322 5.9467 2.1967C7.35322 0.790176 9.26088 0 11.25 0Z" fill="black"/>
<path d="M3.75 18.75V16.875C3.75 16.3777 3.94754 15.9008 4.29917 15.5492C4.65081 15.1975 5.12772 15 5.625 15C6.12228 15 6.59919 15.1975 6.95083 15.5492C7.30246 15.9008 7.5 16.3777 7.5 16.875V18.75H9.375C9.87228 18.75 10.3492 18.9475 10.7008 19.2992C11.0525 19.6508 11.25 20.1277 11.25 20.625C11.25 21.1223 11.0525 21.5992 10.7008 21.9508C10.3492 22.3025 9.87228 22.5 9.375 22.5H1.875C1.37772 22.5 0.900806 22.3025 0.549175 21.9508C0.197544 21.5992 0 21.1223 0 20.625C0 20.1277 0.197544 19.6508 0.549175 19.2992C0.900806 18.9475 1.37772 18.75 1.875 18.75H3.75ZM3.75 30V28.125C3.75 27.6277 3.94754 27.1508 4.29917 26.7992C4.65081 26.4475 5.12772 26.25 5.625 26.25C6.12228 26.25 6.59919 26.4475 6.95083 26.7992C7.30246 27.1508 7.5 27.6277 7.5 28.125V30H9.375C9.87228 30 10.3492 30.1975 10.7008 30.5492C11.0525 30.9008 11.25 31.3777 11.25 31.875C11.25 32.3723 11.0525 32.8492 10.7008 33.2008C10.3492 33.5525 9.87228 33.75 9.375 33.75H1.875C1.37772 33.75 0.900806 33.5525 0.549175 33.2008C0.197544 32.8492 0 32.3723 0 31.875C0 31.3777 0.197544 30.9008 0.549175 30.5492C0.900806 30.1975 1.37772 30 1.875 30H3.75ZM3.75 41.25V39.375C3.75 38.8777 3.94754 38.4008 4.29917 38.0492C4.65081 37.6975 5.12772 37.5 5.625 37.5C6.12228 37.5 6.59919 37.6975 6.95083 38.0492C7.30246 38.4008 7.5 38.8777 7.5 39.375V41.25H9.375C9.87228 41.25 10.3492 41.4475 10.7008 41.7992C11.0525 42.1508 11.25 42.6277 11.25 43.125C11.25 43.6223 11.0525 44.0992 10.7008 44.4508C10.3492 44.8025 9.87228 45 9.375 45H1.875C1.37772 45 0.900806 44.8025 0.549175 44.4508C0.197544 44.0992 0 43.6223 0 43.125C0 42.6277 0.197544 42.1508 0.549175 41.7992C0.900806 41.4475 1.37772 41.25 1.875 41.25H3.75Z" fill="black"/>
</svg>
