<svg width="60" height="60" viewBox="0 0 60 60" fill="none" xmlns="http://www.w3.org/2000/svg">
<path d="M39.9998 37.5C50.0223 37.3375 57.4998 29.9175 57.4998 20C57.4998 12.47 55.0073 14.9625 52.4998 17.5C50.0223 19.95 44.9998 25 44.9998 25L34.9998 15C34.9998 15 40.0498 9.9775 42.4998 7.5C45.0373 4.9925 45.0373 2.5 39.9998 2.5C30.0823 2.5 22.6323 9.9775 22.4998 20C22.6048 22.44 22.4998 27.5 22.4998 27.5C17.7873 32.2425 11.6498 38.3825 7.49976 42.5C0.169762 49.86 10.1398 59.83 17.4998 52.5C21.6248 48.345 27.7823 42.1875 32.4998 37.5C32.4998 37.5 37.5598 37.395 39.9998 37.5Z" stroke="black" stroke-width="2"/>
</svg>
